<svg xmlns="http://www.w3.org/2000/svg" xmlns:xlink="http://www.w3.org/1999/xlink" width="32" height="32" viewBox="0 0 32 32">
  <defs>
    <style>
      .cls-1 {
        fill: #da4935;
        fill-rule: evenodd;
        filter: url(#filter);
      }
    </style>
    <filter id="filter" x="380" y="4337" width="32" height="32" filterUnits="userSpaceOnUse">
      <feFlood result="flood" flood-color="#ebebeb"/>
      <feComposite result="composite" operator="in" in2="SourceGraphic"/>
      <feBlend result="blend" in2="SourceGraphic"/>
    </filter>
  </defs>
  <path id="google.svg" class="cls-1" d="M396,4337a16.005,16.005,0,1,1-16,16A16,16,0,0,1,396,4337Zm-1.346,7.27a6.013,6.013,0,0,1,2.429,4.78c0,2.62-1.437,3.86-2.873,5.03a2.517,2.517,0,0,0-.958,1.74,1.931,1.931,0,0,0,.889,1.52l1.232,1c1.506,1.31,2.873,2.51,2.873,4.96,0,3.33-3.113,6.7-9,6.7-4.96,0-7.354-2.45-7.354-5.07a5.121,5.121,0,0,1,2.634-4.32c2.121-1.35,5-1.53,6.533-1.63a3.807,3.807,0,0,1-1.025-2.41,3.276,3.276,0,0,1,.342-1.39,10.649,10.649,0,0,1-1.1.07,5.5,5.5,0,0,1-5.679-5.56,6.468,6.468,0,0,1,2.19-4.75,9.073,9.073,0,0,1,6.123-1.95h7.046l-2.189,1.28h-2.121ZM392.225,4360a6.312,6.312,0,0,0-.786-0.03,13.139,13.139,0,0,0-3.592.57,3.929,3.929,0,0,0-2.942,3.65c0,2.51,2.36,4.32,6.021,4.32,3.284,0,5.028-1.63,5.028-3.83,0-1.81-1.128-2.76-3.729-4.68h0Zm0.994-6.73a3.683,3.683,0,0,0,.854-2.59c0-2.55-1.47-6.52-4.311-6.52a3.153,3.153,0,0,0-2.394,1.17,4.181,4.181,0,0,0-.753,2.62c0,2.38,1.334,6.31,4.276,6.31a3.429,3.429,0,0,0,2.328-.99h0Zm8.687-10.27h2v8h-2v-8Zm-3,3h8v2h-8v-2Z" transform="translate(-380 -4337)"/>
</svg>
